<svg xmlns="http://www.w3.org/2000/svg" width="375" height="375" x="68.5" y="68.5" alignment-baseline="middle" viewBox="0 0 16 16">
  <style>
    path {
      fill: #171717;
    }
    @media (prefers-color-scheme: dark) {
      path { fill: white; }
    }
  </style>

  <path fill="#171717" fill-rule="evenodd" d="M6.508 3a.75.75 0 0 1 .75-.75h6.992a.75.75 0 0 1 0 1.5H7.258a.75.75 0 0 1-.75-.75Zm0 5a.75.75 0 0 1 .75-.75h6.992a.75.75 0 0 1 0 1.5H7.258a.75.75 0 0 1-.75-.75Zm0 5a.75.75 0 0 1 .75-.75h6.992a.75.75 0 0 1 0 1.5H7.258a.75.75 0 0 1-.75-.75ZM1.083 3.265a1 1 0 0 1 1-1h2a1 1 0 0 1 1 1v2a1 1 0 0 1-1 1h-2a1 1 0 0 1-1-1v-2Zm3 0h-2v2h2v-2Zm.643 6.558a.5.5 0 0 0-.752-.66l.376.33-.376-.329-.002.002-.003.004-.012.014a6.397 6.397 0 0 0-.202.245c-.132.164-.31.397-.504.676-.258.37-.55.835-.788 1.334l-.527-.527a.5.5 0 0 0-.707.707l1.063 1.063a.5.5 0 0 0 .83-.204c.196-.622.588-1.282.95-1.803a11.614 11.614 0 0 1 .643-.839l.009-.01.002-.002Z" clip-rule="evenodd"/>
</svg>
